<svg data-name="Layer 1" xmlns="http://www.w3.org/2000/svg" viewBox="0 0 48 48"><path d="M46.2 17c1.39-2.32 1.7-2.36 1.8-3.33.08-.76-1.71-1.61-2.74-2.31a5.77 5.77 0 0 0-2.72-1c-.46 0-1.07.08-1-.16.63-1.86-.45-2.31-.88-2.4v-1h-.18v-.16H22.64a16.72 16.72 0 0 0-3-.51c-.45 0-1.41.5-1.73.51a2.11 2.11 0 0 1-.9-.33c-.28-.24-.55-.8-2-.54a1.79 1.79 0 0 0-1.22.87h-8v.18h-.18v10a1.59 1.59 0 0 0-.84.24c-.09.06-.53.22-.61.56-.28.24-.36.75-.18.93 0 .12-.18.74.36.92a.81.81 0 0 1-.26 1.25 8.28 8.28 0 0 0-2.34.93c-3.82 1.91-.26 2.84.39 2.9.94.08 1.15.16.84 1.13A5.19 5.19 0 0 0 3 28c-.76 0-.86.83-.84 1.39-.49 1.73 1 1.33 1.45.58 1.4.63 1.9-1.49 2-1.42v1.37a8.79 8.79 0 0 1-.48.82c-.67 1.45-.1.87-.14 1.49s0 1 .62 1.16v8.32h.18v.2h5.86a3.37 3.37 0 0 0 .32.19c.67.3.73.32.91 0a.63.63 0 0 0 .08-.23h27.52v-.2h.19V30.78c1.31 0 .87-.33 1-1.55s.31-3 .31-2.88c.16 1.23.62 3.34.44 3.61a1.79 1.79 0 0 1-.79.82c-.66.4-.66.62-.64.67s-.1.4.72.42a4.63 4.63 0 0 0 1.88-.59c.3-.16.7-.08.86-.6a6.1 6.1 0 0 0 0-1.39 15 15 0 0 0 .34-4.11c.71-1.71.59-5.55.57-5.78.64-1.1.94-1.33.88-2.39zM12.58 41a.25.25 0 0 1 0-.32v-.08.4zm.36-1a4.94 4.94 0 0 1 2.26-1.81c.73-.25 3.15-1.07 4.22-1.32v4.7h-6.48v-1.63zm26.64-21.4a18.41 18.41 0 0 0-.4 2h-3.27a12.52 12.52 0 0 0 1.62-1.47c.88-.3.5-.8.26-1.13a1.06 1.06 0 0 0-1.25-.06c-1.09 0-.26.44-.42.65-.33.32-1.74 1-2.24 1.35l-.2.12v-5.88c1.72.72 4.59.4 5 .71a4.91 4.91 0 0 1 .91 3.65zm-.46 3.4c-.2 2.51.58 4.41.72 5.64h-6.16V22a7.39 7.39 0 0 0 1.77-1.13h3.68c-.05.57 0 .75 0 1.09zM7.89 25.12a2.64 2.64 0 0 1 .42-1.89 7.46 7.46 0 0 1 1.69-.89 7.52 7.52 0 0 0 2.54-1.19v4.54a1.32 1.32 0 0 1-.3 0c-.69-.1-.73.1-.69.25s.06.1-.62.06c-1.05 0-.71.7-.22.9a7.23 7.23 0 0 0 1.83.3v.45H8.35c-.13-1.51-.43-1.89-.46-2.5zM14.13 16c.12-.3-.18-.77 0-1.13a9.3 9.3 0 0 1 .76-1h3a4.47 4.47 0 0 0 .82.08 2.41 2.41 0 0 0 .48-.08h.18v6.62H13.7a1.07 1.07 0 0 0 .35-.36c.16-.42.12-.83-.18-.85-.65.34-.31.06-.61.1a1.9 1.9 0 0 1-.32.2v-2.34A6.85 6.85 0 0 0 14.13 16zm6.58-5.36a2.48 2.48 0 0 1 .37-.9c.12-.3.6-.87.62-1.17 0 0 .71.06.91.06L24 8.55c.42 0 1.2.28 1.53.26h.86v4.74h-6.5a3.64 3.64 0 0 0 .88-1.18 3.42 3.42 0 0 0-.08-1.7zM33.32 14v6.12a.63.63 0 0 1-.34 0c-.14-.06-1-.43-1.11-.45s-.1.11-1.11-.42a3.18 3.18 0 0 0-2.52-.56c-.92.12-1.22.28-1.22-.1s.52-.67.52-.67c.7-.24.4-.68.34-.8a2.12 2.12 0 0 0-.18-.79c.36-.32-.34-.64-.46-.82a3.29 3.29 0 0 0-.47-1v-.56h6.38l.17.09zm-20.38 7l.12-.06h6.36v1.62c-.84.58-1.28 1-2.23 1.58a17.69 17.69 0 0 1-3.65 1.63s-.38.15-.54 0h-.06V21zm6.85-.06h2.13l-2.13 1.38zm6.62-6.75a1.42 1.42 0 0 0-1.27-.07 4.85 4.85 0 0 0-2.61 1.67 1.4 1.4 0 0 0-.61.72c-.06.29.3.53 0 1.11a.91.91 0 0 0 0 1.05c0 .12.08.68.44.78 1 .1.69.2 1.13.37a7.5 7.5 0 0 1-1 .76h-2.7v-6.67h6.62v.23zm-13.47 13c.11-.16.38-.36 1.23-.33 2.28.08 4.26-1.3 5.25-1.84v2.63h-6.48zm6.85-2.35c.94-.44 3-1.56 3.42-1.42A4.93 4.93 0 0 1 24.68 26c-.19.59-.79 1-1.06 1.67h-3.83v-2.86zM23.5 28c-.5 1.85.21 1.71 0 2.76-.06.34-1.69 1.37-2.86 2.66a3.64 3.64 0 0 1-.86.71V28zm2.91 5.75v.79h-.89a8.4 8.4 0 0 0 .89-.81zm.36-.35a15.41 15.41 0 0 1 1.15-1.29c.18 0 .51 0 1.57.44 2.66 1.15 2.72.6 3.16 1.11a7.54 7.54 0 0 0 .29.88h-6.17v-1.16zm6.55-3.19c-.76-.49-2.22-1.54-3.11-2.21h3.11v2.21zm-3.58-2.57l-.23-.18a9.32 9.32 0 0 1 .14-1.46 6.16 6.16 0 0 1 .43-2.4c.56-.36.42-1.17.58-1.57a13.31 13.31 0 0 0 2.66 0v5.54zm.78-15.14c-.14 0-.46.1-.38.2.36.44 1.32.24 1.63.4l.78.46h-5.78V8.8a4 4 0 0 1 .83.09c.3.12 1.59.83 1.77.73s-.18-.36-.14-.49 1.13.13 1.27-.18-.81-.7-1.13-.8S28.26 8.05 28 8s-.71-.29-1.23-.46V7h6.55v5.58a3.86 3.86 0 0 1-1.41-.51 2.75 2.75 0 0 0-1.81-.66s-.77.06-.75.46a4.11 4.11 0 0 1 1.17.61zm-4.11-5.08a2.16 2.16 0 0 0-.41-.08c-.18 0-1.29-.24-1.49-.28L24.24 7h2.17v.42zm-11.25 6.12c.08-.21.09-.7.2-.72s.66.39 1.44.72zm-2.58-.93c-.06.31-.13.63-.19.93H6V7h6.61v5.61zm-.28 1.3a17 17 0 0 1-.45 1.69c0 .08-.52.82-.7 1.1s-.43.35-.57.51-.1.46.25.56.76-.3.88-.28 0 .32.24.32a1.28 1.28 0 0 0 .63-.29v2.37c-.09.2-.12.14-.41.26a5.24 5.24 0 0 1-1.93.32l-.87.06H6.93a.2.2 0 0 1-.09-.16c.64-.75.32-.83.44-1.17a5.83 5.83 0 0 0 .06-1.2 1.12 1.12 0 0 0-.16-.78A2.69 2.69 0 0 0 6.6 17c-.18 0-.35-.21-.63-.26v-2.83zM7 33.14c.14-.29-.6-1-.22-1.66S8.43 29.73 8.41 29v-1h4.2v6.54H6v-1.1c.62.06.83-.04 1-.3zm6-5.16h6.48v6.32a3.68 3.68 0 0 1-.69.22h-5.85V28zm4.28 6.91c-.85.37-2.11 1.58-3.86 2.54l-.42.21v-2.75zm2.57 1.85c2.21-.2 2-.64 2.86-.87a8.28 8.28 0 0 0 2.33-1h1.41v6.62h-6.66zm7-1.85h6.32c.07.16.15.32.23.47v6.15h-6.63v-6.62zM33.68 36a8.13 8.13 0 0 0 1.15 1.57 3.82 3.82 0 0 1 1.27 2.25c0 .75-.49 1.33.83 1.67h-3.25V36zm6.62 5a3.09 3.09 0 0 0-.92-.48 3.86 3.86 0 0 1-2.08-2 23.21 23.21 0 0 1-1.38-3.72h4.38zm-4.49-6.53c-.16-.58-.29-1.12-.36-1.53a3.37 3.37 0 0 0-1.77-2.56V28h6.19c.08 1-.11 1.41-1.4 2.18s.26.72.26.72.08-.11 1.57-.1v3.74zm3.13-26.42c-.75.42-.45.94-.59 1.18s-.44.39-.44.67.3.32.3.34c0 .46.06.81.06.91 0 .36.44.32.38.42s-.82.36-1.35.7a2.6 2.6 0 0 1-1.3.53 9.87 9.87 0 0 1-2-.12h-.28V7h6.58v.77a2.28 2.28 0 0 0-1.36.28zM13.54 8A2 2 0 0 0 15 9.66c.43.06.41-.08.79-.16s.42.1.58.06 0-.14.22-.2.65-.08.77-.31.32-.4.32-.4c-.42 1.69-.56 1.67-.56 1.67-2-.52-3.38-.42-3.73-.16a.75.75 0 0 0-.4.49V7h.71a2.05 2.05 0 0 0-.1 1zM6 41.51v-6.62h6.61v2.93a10.22 10.22 0 0 1-2.26.81c-1 .37-.48 1-.2 1.13a7.77 7.77 0 0 0 .6 1.24 3.31 3.31 0 0 0 .46.56z" fill="#0062ae"/></svg>