<svg width="32" height="32" fill="none" xmlns="http://www.w3.org/2000/svg"><g fill="#0C419A"><path d="M16.476 2.474a.407.407 0 00-.302-.174l-.2-.02c-.14-.038-3.14.011-3.843.464-.075-.476-.239-1.051-1.06-1.227-.58-.123-1.829.429-1.41 1.676a.83.83 0 00.429.47c.107.055.277.03.403.356.037.096.108.086.17.066.062-.02.058-.01.133.052a.096.096 0 00.107.02.094.094 0 00.069.025c.03 0 .099-.022.116 0 .238.19.515-.11.62-.298l.384 1.165c-.092-.08-1.037-.352-1.49.154-.394.43-.682 1.028-1.014 2.043a.82.82 0 01-.582.53c-.515.189-.214.43-.083.453.4.057.808.04 1.203-.047.191-.095.05-.535.262-.807l.47-.607a2 2 0 01-.167.914c-.155.377-.625.577-.764.757-.247.318.32.344.47.292.375-.129.643-.122.8-.214.215-.125.062-.462.133-.6.193-.381.859-1.216.934-1.349a.449.449 0 00.028-.054c.39.123.799.178 1.208.166 1.096-.131 1.34-.906 1.23-1.502a2.546 2.546 0 00-.556-1.073 12.695 12.695 0 00-.554-.84c.315-.075 2.06-.555 2.066-.54.067.141.215.174.266.214.114.063.179-.034.133-.062a.264.264 0 01-.107-.118c.127-.001.254.008.38.028.122.017.204-.255.118-.313z"/><path fill-rule="evenodd" clip-rule="evenodd" d="M31.993 12.997c-.281-1.502-1.684-2.435-2.408-2.742a5.162 5.162 0 00-.791-.275l-.24-.08c.05-.326.428-.351.656-.817.644-1.322-.678-2.253-1.657-2.039-.461.103-.783.269-.858.62-.039.192-.187.198-.43.451-.076.082.095.215.123.27 0 .016-.043.086-.06.166-.017.08 0 .066 0 .077a.38.38 0 00-.047.187.502.502 0 000 .453c.098.15.166.32.2.497 0 .041 0 .063-.18 0-.046-.012-1.816-.534-2.014-.667-.197-.133-1.974-2.051-2.167-2.425-.105-.214-.215-.341-.273-.337-.414.026.3.773-.1.517a10.233 10.233 0 01-.43-.3c-.077-.062-.058-.032-.113-.122a.566.566 0 00-.136-.176c-.045-.032-.073-.041-.105-.032-.032.008-.053.062-.068.066a.329.329 0 00-.071 0c-.103.026-.026.29 0 .412.1.278.225.547.373.803.449.309.89.568.906.585.483.56 1.05 1.262 1.555 1.794.404.43 2.245 1.503 2.307 1.53.12.073.311.466.037 3.277-.103 1.058-.858 3.307-.5 4.47.395 1.073.656 2.191.777 3.328.06.462-.299.74-.811 1.112-.2.146-.762.493-.82.545-.095.086 0 .215.116.275.152.079.31.145.474.2.301.044.608-.016.871-.17.373-.215.408-.245.627-.378.253-.152.558-.202.643-.46.106-.342-.184-.834-.154-1.057.215-1.61.487-2.406.081-3.393-.081-.197.588-2.347.644-2.058.103.567.144 2.251.163 3.505 0 .547.449 2.49.59 3.188.215 1.073-1.598 1.932-1.2 2.253.163.111.348.185.542.215a.978.978 0 001.028-.405c.386-.481.268-.348.572-.691.265-.297.076-.807.041-1.073-.068-.548-.01-.691-.015-1.674-.02-.631.024-1.262.131-1.884.286-1.884.462-2.908.55-3.708v-.045s.137.049.197-.05c.065-.134.103-.28.11-.429.023-.105.066.03.066.03.043.11.074.224.092.341-.03.16-.08.316-.15.464-.073.214.112.244.159.262.264-.13.498-.315.684-.543.057-.158.083-.325.078-.492a7.364 7.364 0 00-.155-1.073c.172-.555.629-1.922.56-2.298zm-1.287 2.172c-.06.268-.078.013-.33 1.006l.027-.142v-.429c0-1.231-.942-3.862-.371-3.302 0 0 .686.478.82.843.111.29.072 1.077-.146 2.024z"/><path d="M7.749 18.109c-.215-.185-.955-1.2-1.44-1.599a6.899 6.899 0 01-.667-.858c-.878-1.17-1.073-1.236-1.683-1.34-.124-.083-.084-.18-.07-.184a.766.766 0 00.525-1.02c-.036-.152.067-.214.064-.36a1.611 1.611 0 00-.115-.577.43.43 0 00-.071-.412c-.43-.54-1.502-.566-2.054-.182-.446.309-.184.523-.324.96a.676.676 0 00.183.69c.021.146.46.429.375.738-.086.309-.61.386-.596.386a.623.623 0 00-.16.06C.898 14.88.104 15.56 0 16.308c.045.603.979 1.472 1.58 1.931.087 1.028.74 2.601.77 2.664.088.188-.185-.142-.841-.365-.32-.108-.74-.543-.83-.032-.04.214.053.583-.149 1.043-.152.35.026.91.412.899.279 0 .444-.859.444-.859s1.35.672 1.994.449c.375-.131.461-1.635.09-2.977-.131-.47.242.767 1.144 1.855.2.24.023.429.154 1.323.037.19.052.384.045.578-.026.429-.44.946.507 1.189.946.242.886.474 1.491.068.27-.182-.833-.294-1.047-.946a.858.858 0 01-.026-.142c-.026-.515.215-1.716.137-2.12-.343-2.038-1.2-2.98-1.309-3.457 0-1.423-.103-1.869.033-1.55.181.33.389.646.62.943.032.04.07.084.111.129.077.09.163.173.258.244.594.52 1.54 1.14 1.667 1.275 0 0 .071.626.329.581.257-.045 1.366-.538 1.345-.663-.045-.231-1.142-.225-1.18-.26zm-6.176-.79c-.172-.33-.644-.944-.61-1.045.262-.43.543-.554.627-.526.084.028-.017 1.571-.017 1.571z"/><path d="M26.562 29.64c-.05-.025-.717-.272-1.307-1.216-.264-.43-2.247-4.097-2.517-4.813-.537-1.419-4.721-3.97-4.897-4.118-.124-.101-.11-.348-.062-.509.352-1.193.214-2.262.28-2.423.173-.405.43-.995.24-1.38l-.43-.682s2.212.8 2.725.693c.442-.094 2.67-1.624 2.79-1.69.309-.157 1.05.074 1.798-.74.281-.308.077-.413.026-.36a.191.191 0 00-.258-.068c-.178.1-.794.279-.68.195.446-.334.137-.429.137-.429-.195.161-1.083.386-1.255.528-.215.165-.337.307-.43.365a9.484 9.484 0 01-2.405.946c-.189.043-1.954-1.111-2.976-1.268a2.016 2.016 0 00-1.047.04c-.365.104-.337-.428-.067-.55.142-.067.378-.11.466-.29a.559.559 0 00-.017-.445.152.152 0 00-.015-.124c-.026-.062-.022-.03-.013-.092.009-.063-.028-.082-.043-.133a.191.191 0 01.015-.118c.215-.18.122-.264.094-.29-.045-.056-.375-.198-.403-.412a2.52 2.52 0 00-.215-.685c-.021-.064-.058-.463-.233-.624-.215-.195-.668-.43-1.644-.172-.313.086-.256.236-1.041.382-.938.174-1.455 1.569-1.371 2.146.068.468.47.24.453.448-.026.324-.06.859.626 1.058.148.043 1.047-.1 1.389-.04 0 0 .278.023.139.302-.069.138-.97.494-1.19.588-.593.245-2.106 2.728-2.563 2.962a5.227 5.227 0 00-.764.448c-.622.39-1.23.858-1.564.858-.447-.027-.81.187-1.108.859-.088.197-.036.298.125.339a.38.38 0 00.277.141c.133.125.283.046.397-.015.35-.19.429-.34.566-.397.341-.111 2.36-.89 2.81-1.238.681-.373 2.055-1.783 2.36-1.798.279-.026.978.592.764 1.781-.076.406-.582 1.137-.859 1.564-.558.846-.126 1.584-.236 1.762-.577.942-1.287 2.202-2.485 3.28-.466.302-1.448.37-1.968.523-1.193.35-2.463 1.206-3.37 1.716-.301.168-.589-.193-.966-.236-.378-.043-.41.528-.603 1.045-.06.16-.086.234-.374.872-.114.249-.412 1.017-.111 1.334.274.382.927-.815 1.43-1.399.27-.309.43-.41 1.012-.543.369-.085 3.294-.88 5.225-1.302.047 0 .099-.02.154-.035 2.509-.643 5.11-3.927 5.15-3.912l4.26 2.112c.43.232.43 1.062.942 2.006.305.571.753 1.073 2.575 2.857.234.23.04.61.148.963.107.354.292.386.633.358.341-.027.603-.077.92-.098.406-.024.297.02.771.09.23.034.756.11 1.127-.26.659-.665-.715-.33-1.337-.656z"/><path d="M21.937 27.793a.255.255 0 00-.347-.114 13.09 13.09 0 01-12.446-.32.26.26 0 10-.26.45 13.617 13.617 0 0012.935.334.257.257 0 00.118-.35zM3.515 10.748a.26.26 0 01-.236-.367 13.556 13.556 0 015.539-6.133.26.26 0 11.261.447 13.05 13.05 0 00-5.326 5.9.266.266 0 01-.238.153zM25.682 7.424a.255.255 0 01-.193-.088 13.09 13.09 0 00-7.97-4.292.26.26 0 11.073-.515 13.603 13.603 0 018.285 4.464.26.26 0 01-.195.43v.001z"/></g></svg>