<svg xmlns="http://www.w3.org/2000/svg" viewBox="0 0 32 32"><path fill="#0062AE" d="M30.2 11.68c.9-1.48 1.1-1.51 1.16-2.13.05-.49-1.1-1.03-1.75-1.48a3.7 3.7 0 0 0-1.74-.64c-.3 0-.69.05-.64-.1.4-1.2-.3-1.48-.57-1.54v-.64h-.11v-.1H15.13a10.7 10.7 0 0 0-1.92-.33c-.29 0-.9.32-1.1.33-.21-.03-.41-.1-.58-.21-.18-.16-.36-.51-1.28-.35-.33.07-.62.27-.78.56H4.35v.11h-.12v6.4c-.19 0-.38.06-.54.16-.05.04-.34.14-.39.36-.18.15-.23.48-.11.6 0 .07-.12.47.23.58a.52.52 0 0 1-.17.8 5.3 5.3 0 0 0-1.5.6c-2.44 1.22-.16 1.81.25 1.85.6.05.74.1.54.73-.1.49-.1 1 .02 1.48-.49 0-.55.53-.54.89-.31 1.1.64.85.93.37.9.4 1.22-.95 1.28-.9v.87l-.3.52c-.44.93-.07.56-.1.96-.02.4 0 .64.4.74v5.32h.12v.13H8.1c.06.05.13.09.2.12.43.2.47.2.58 0a.4.4 0 0 0 .05-.14h17.62v-.13h.12V20.5c.84 0 .56-.21.64-1l.2-1.84c.1.8.4 2.14.28 2.31-.1.23-.29.41-.5.53-.43.26-.43.4-.42.43.02.03-.06.25.46.27.43-.04.84-.17 1.2-.38.2-.1.46-.05.56-.38.03-.3.03-.6 0-.9.2-.86.26-1.74.22-2.62.45-1.1.37-3.56.36-3.7.41-.7.6-.86.56-1.53l-.02-.01zM8.7 27.04a.16.16 0 0 1 0-.2v-.06.26zm.22-.64c.36-.52.86-.93 1.45-1.16.47-.16 2.01-.68 2.7-.84v3H8.92v-1.04.04zm17.05-13.7c-.1.43-.2.85-.25 1.28h-2.1c.37-.28.72-.6 1.04-.94.56-.19.32-.5.17-.72a.68.68 0 0 0-.8-.04c-.7 0-.17.28-.27.42-.21.2-1.12.64-1.44.86l-.12.08V9.88c1.1.46 2.93.25 3.2.45.5.67.7 1.51.58 2.34v.03zm-.3 2.18c-.12 1.6.38 2.82.47 3.61H22.2v-3.61c.4-.19.79-.43 1.13-.72h2.35c-.03.36 0 .48 0 .7v.02zm-19.98 2c-.07-.43.03-.86.27-1.21.33-.24.7-.43 1.08-.57a4.96 4.96 0 0 0 1.63-.76v2.9h-.2c-.44-.06-.46.07-.44.16.03.1.04.07-.4.04-.67 0-.45.45-.14.58.38.11.78.17 1.18.19v.29H5.98c-.08-.97-.27-1.21-.29-1.6v-.02zm4-5.84c.07-.2-.12-.5 0-.72.14-.23.3-.44.48-.64h1.92c.17.03.35.05.52.05.1 0 .21-.03.31-.05h.12v4.23H9.4a.54.54 0 0 0 .22-.23c.1-.27.08-.53-.11-.54-.42.22-.2.04-.4.06a.86.86 0 0 1-.2.13v-1.5c.29-.23.54-.5.76-.79zm4.2-3.43c.04-.2.13-.4.24-.58.08-.19.39-.55.4-.75l.58.04.89-.05c.27 0 .77.18.98.17h.55v3.03h-4.16c.24-.2.43-.47.56-.75.08-.36.06-.74-.05-1.1l.01-.01zm8.07 2.15v3.92a.4.4 0 0 1-.21 0l-.71-.3c-.07 0-.07.08-.71-.26a2.04 2.04 0 0 0-1.62-.36c-.59.08-.78.18-.78-.06 0-.25.34-.43.34-.43.44-.15.25-.44.21-.51 0-.18-.04-.35-.11-.5.23-.21-.22-.42-.3-.53a2.1 2.1 0 0 0-.3-.64v-.36h4.09l.1.06v-.03zM8.92 14.24L9 14.2h4.07v1.04c-.54.37-.82.64-1.43 1.01-.74.43-1.52.78-2.33 1.04 0 0-.25.1-.35 0h-.04v-3.05zm4.39-.04h1.36l-1.36.88v-.88zm4.23-4.32a.9.9 0 0 0-.81-.04 3.1 3.1 0 0 0-1.67 1.07.9.9 0 0 0-.4.46c-.03.18.2.34 0 .7a.58.58 0 0 0 0 .68c0 .08.06.43.29.5.64.06.44.13.72.23-.2.18-.41.35-.64.5h-1.72V9.7h4.23v.18zM8.92 18.2c.07-.1.24-.23.79-.21 1.46.05 2.73-.83 3.36-1.18v1.69H8.92v-.3zm4.39-1.5c.6-.28 1.92-1 2.18-.91.48.44.8 1.02.95 1.65-.13.38-.51.64-.68 1.07H13.3v-1.83.02zm2.37 2.02c-.32 1.18.13 1.1 0 1.77-.04.21-1.08.87-1.83 1.7-.16.18-.35.33-.55.45v-3.92h2.38zm1.86 3.68v.5h-.57c.2-.15.4-.33.57-.51v.01zm.23-.22c.23-.3.48-.57.74-.83.11 0 .33 0 1 .28 1.7.74 1.74.39 2.03.71.05.2.1.38.18.57h-3.95v-.75.02zm4.2-2.05c-.5-.3-1.43-.98-2-1.41h2v1.41zm-2.3-1.64l-.14-.12c0-.3.03-.62.09-.93-.02-.53.08-1.05.27-1.54.36-.23.27-.74.37-1 .57.06 1.14.06 1.7 0v3.54l-2.29.05zm.5-9.69c-.09 0-.3.06-.24.13.23.28.84.15 1.04.25l.5.3h-3.7V6.43c.18 0 .36.02.53.06.2.08 1.02.53 1.14.47.11-.07-.12-.23-.1-.32.03-.08.73.09.82-.11.09-.2-.52-.45-.72-.51-.2-.07-.71-.07-.88-.1-.17-.03-.45-.19-.79-.3v-.34h4.2v3.57a2.47 2.47 0 0 1-.9-.33 1.76 1.76 0 0 0-1.17-.42s-.49.04-.48.3c.27.09.53.22.75.39v.01zm-2.63-3.25a1.38 1.38 0 0 0-.26-.05c-.12 0-.83-.16-.95-.18l-.18-.04h1.4v.27zm-7.2 3.92c.05-.14.06-.45.13-.47.07 0 .42.25.92.47h-1.05zm-1.65-.6l-.12.6H4.48V5.28h4.23v3.59h-.02zm-.18.83c-.08.37-.17.73-.29 1.08 0 .06-.33.53-.44.7-.12.19-.28.23-.37.33-.09.1-.06.3.16.36.23.07.49-.19.56-.18.08.02 0 .2.16.2a.82.82 0 0 0 .4-.18v1.52c-.06.13-.08.09-.26.17-.4.14-.82.21-1.24.2l-.55.04H5.08a.13.13 0 0 1-.06-.1c.4-.48.2-.53.28-.75.04-.26.05-.51.04-.77a.72.72 0 0 0-.1-.5c-.12-.06-.25-.1-.38-.14-.11 0-.22-.13-.4-.17v-1.8h4.05zM5.12 22.01c.09-.19-.38-.64-.14-1.06.24-.43 1.06-1.12 1.04-1.59v-.64h2.69v4.19H4.48v-.7c.4.03.53-.03.64-.2zm3.84-3.3h4.15v4.04c-.15.06-.3.11-.44.14H8.92v-4.17l.04-.01zm2.74 4.42c-.54.24-1.35 1.01-2.47 1.63l-.27.13v-1.76h2.74zm1.64 1.18c1.42-.12 1.28-.4 1.83-.55a5.3 5.3 0 0 0 1.5-.64h.9v4.23H13.3l.03-3.04zm4.48-1.18h4.05l.15.3v3.94h-4.25v-4.24h.05zm4.38.71c.2.36.45.7.73 1 .43.38.72.88.81 1.44 0 .48-.31.86.54 1.07H22.2v-3.51zm4.23 3.2a1.98 1.98 0 0 0-.59-.3 2.5 2.5 0 0 1-1.33-1.29c-.36-.76-.66-1.56-.88-2.38h2.8v3.97zm-2.87-4.18c-.1-.37-.19-.72-.23-.98a2.16 2.16 0 0 0-1.13-1.64v-1.52h3.96c.05.64-.07.9-.9 1.4-.82.49.17.46.17.46s.05-.07 1-.07v2.4l-2.87-.05zm2-16.9c-.48.26-.29.6-.38.75-.09.15-.28.25-.28.43s.2.2.2.21c0 .3.03.52.03.59 0 .23.28.2.25.26-.04.07-.53.24-.87.45-.24.19-.53.3-.83.34-.43.02-.86 0-1.28-.07h-.18V5.28h4.21v.5c-.3-.04-.6.02-.87.17zM9.31 5.91c.07.51.43.93.93 1.06.28.04.26-.05.5-.1.25-.05.27.06.38.04.1-.03 0-.1.14-.13.14-.04.41-.05.49-.2.08-.15.2-.25.2-.25-.26 1.08-.35 1.06-.35 1.06-1.28-.33-2.17-.26-2.39-.1a.48.48 0 0 0-.26.32V5.28h.46c-.08.2-.1.42-.07.64h-.03zM4.48 27.37v-4.24h4.23V25c-.46.23-.95.4-1.45.52-.64.24-.3.64-.12.73.1.27.23.54.38.79.08.13.18.25.3.36l-3.34-.03z"/></svg>